<?xml version="1.0" encoding="UTF-8"?>
<svg fill="#D3D3D3" width="1200pt" height="1200pt" version="1.1" viewBox="0 0 1200 1200" xmlns="http://www.w3.org/2000/svg">
 <path d="m1121.1 209.7v-18.18h-72.844v-40.344h-41.039v-74.797h-18.168v74.797h-23.965v-74.797h-18.168v74.797h-24.012v-74.797h-18.156v74.797h-23.973v-74.797h-18.156v74.797h-23.965v-74.797h-18.168v74.797h-24.023v-74.797h-18.168v74.797h-23.965v-74.797h-18.156v74.797h-23.965v-74.797h-18.168v74.797h-24.012v-74.797h-18.168v74.797h-23.977v-74.797h-18.168v74.797h-23.949v-74.797h-18.168v74.797h-24.016v-74.797h-18.168v74.797h-23.949v-74.797h-18.18v74.797h-23.953v-74.797h-18.18v74.797h-23.953v-74.797h-18.18v74.797h-24v-74.797h-18.18v74.797h-23.953v-74.797h-18.168v74.797h-23.965v-74.797h-18.168v74.797h-24.012v-74.797h-18.168v74.797h-23.949v-74.797h-18.18v74.797h-41.09v40.344h-68.27v18.18h68.27v23.977h-68.27v18.168h68.27v23.965h-68.27v18.18h68.27v23.977h-68.27v18.168h68.27v23.988h-68.27v18.168h68.27v23.965h-68.27v18.168h68.27v23.973h-68.27v18.18h68.27v23.977h-68.27v18.18h68.27v23.953h-68.27v18.18h68.27v23.977h-68.27v18.168h68.27v23.988h-68.27v18.168h68.27v23.965h-68.27v18.156h68.27v24.023h-68.27v18.168h68.27v23.965h-68.27v18.168h68.27v23.961h-68.27v18.168h68.27v24.016h-68.27v18.168h68.27v23.961h-68.27v18.168h68.27v23.965h-68.27v18.168h68.27v24.012h-68.27v18.156h68.27v23.965h-68.27v18.168h68.27v45.625h41.09v70.02h18.18v-70.02h23.949v70.02h18.168v-70.02h24.012v70.02h18.168v-70.02h23.965v70.02h18.168v-70.02h23.953v70.02h18.18v-70.02h24v70.02h18.18v-70.02h23.953v70.02h18.18v-70.02h23.953v70.02h18.18v-70.02h23.949v70.02h18.168v-70.02h24.016v70.02h18.168v-70.02h23.949v70.02h18.168v-70.02h23.977v70.02h18.168v-70.02h24.012v70.02h18.168v-70.02h23.965v70.02h18.156v-70.02h23.965v70.02h18.168v-70.02h24.023v70.02h18.168v-70.02h23.965v70.02h18.156v-70.02h23.973v70.02h18.156v-70.02h24.012v70.02h18.168v-70.02h23.965v70.02h18.168v-70.02h41.039v-45.625h72.844v-18.168h-72.844v-23.965h72.844v-18.156h-72.844v-24.012h72.844v-18.168h-72.844v-23.965h72.844v-18.168h-72.844v-23.961h72.844v-18.168h-72.844v-24.016h72.844v-18.168h-72.844v-23.961h72.844v-18.168h-72.844v-23.965h72.844v-18.168h-72.844v-24.023h72.844v-18.156h-72.844v-23.965h72.844v-18.168h-72.844v-23.988h72.844v-18.168h-72.844v-23.977h72.844v-18.18h-72.844v-23.953h72.844v-18.18h-72.844v-23.977h72.844v-18.18h-72.844v-23.973h72.844v-18.168h-72.844v-23.965h72.844v-18.168h-72.844v-23.988h72.844v-18.168h-72.844v-23.977h72.844v-18.18h-72.844v-23.965h72.844v-18.168h-72.844v-23.977z"/>
</svg>
